# xmcd
#
# Track frame offsets:
#	150
#	13442
#	30055
#	47910
#	65709
#	83744
#	95921
#	113768
#	130689
#	150124
#	167006
#	185323
#
# Disc length: 2663 seconds
#
# Revision: 0
# Processed by: cddbd v1.5.2PL0 Copyright (c) Steve Scherf et al.
# Submitted via: audiograbber 1.83.01
#
DISCID=8f0a650c
DTITLE=Various Artist - Der Grosse Preis - Neu 77
DYEAR=1977
DGENRE=Schlager
TTITLE0=Mireille Mathieu  - Der Zar Und Das Mädchen (Besser, Frei Wie Ein Vogel
TTITLE0=Zu Leben, Als Im Goldene
TTITLE1=Peter Alexander  - Pedro (Mandolinen Um Mitternacht)
TTITLE2=Freddy Quinn  - La Paloma
TTITLE3=Michael Holm  - Tränen Lügen Nicht
TTITLE4=Vicky Leandros  - Ich Hab' Die Liebe Geseh'n
TTITLE5=Udo Jürgens  - Merci Chérie
TTITLE6=Jürgen Marcus  - Ein Festival Der Liebe
TTITLE7=Bernd Clüver  - Der Kleine Prinz (Ein Engel, Der Sehnsucht Heißt)
TTITLE8=Gunter Gabriel  - Er Ist Ein Kerl (Der 30 Tonner Diesel)
TTITLE9=Nina and Mike  - Rund Um Die Welt Geht Das Lied Der Liebe
TTITLE10=Heino  - Blau Blüht Der Enzian
TTITLE11=Tony Marshall  - Schöne Maid
EXTD=
EXTT0=
EXTT1=
EXTT2=
EXTT3=
EXTT4=
EXTT5=
EXTT6=
EXTT7=
EXTT8=
EXTT9=
EXTT10=
EXTT11=
PLAYORDER=
